<svg width="240" height="299" viewBox="0 0 240 299" fill="none" xmlns="http://www.w3.org/2000/svg">
<path d="M23 47H179.5C183.366 47 186.5 50.134 186.5 54V102C186.5 105.866 183.366 109 179.5 109H83C79.134 109 76 112.134 76 116V139.5C76 143.366 79.134 146.5 83 146.5H162C165.866 146.5 169 149.634 169 153.5V291.5C169 295.366 165.866 298.5 162 298.5H7C3.13401 298.5 0 295.366 0 291.5V242C0 238.134 3.13401 235 7 235H98C101.866 235 105 231.866 105 228V202C105 198.134 101.866 195 98 195H23C19.134 195 16 191.866 16 188V54C16 50.134 19.134 47 23 47Z" fill="#3DB2D1"/>
<g filter="url(#filter0_d_2201_12)">
<path fill-rule="evenodd" clip-rule="evenodd" d="M134.5 2C130.634 2 127.5 5.13401 127.5 9V257V273C127.5 276.866 130.634 280 134.5 280H150.5C150.503 280 150.506 280 150.508 280L233.5 280C237.366 280 240.5 276.866 240.5 273V257C240.5 253.134 237.366 250 233.5 250L157.5 250V9C157.5 5.13401 154.366 2 150.5 2H134.5Z" fill="#F1843F"/>
</g>
<path d="M132 162C132 160.343 133.343 159 135 159H149C150.657 159 152 160.343 152 162V176C152 177.657 150.657 179 149 179H135C133.343 179 132 177.657 132 176V162Z" fill="#CFCFCF"/>
<rect x="205.5" y="255" width="20" height="20" rx="3" fill="#CFCFCF"/>
<path d="M131.5 71C131.5 69.3431 132.843 68 134.5 68H148.5C150.157 68 151.5 69.3431 151.5 71V85C151.5 86.6569 150.157 88 148.5 88H134.5C132.843 88 131.5 86.6569 131.5 85V71Z" fill="#CFCFCF"/>
<rect x="132.5" y="255" width="20" height="20" rx="3" fill="#CFCFCF"/>
<defs>
<filter id="filter0_d_2201_12" x="125.5" y="0" width="121" height="286" filterUnits="userSpaceOnUse" color-interpolation-filters="sRGB">
<feFlood flood-opacity="0" result="BackgroundImageFix"/>
<feColorMatrix in="SourceAlpha" type="matrix" values="0 0 0 0 0 0 0 0 0 0 0 0 0 0 0 0 0 0 127 0" result="hardAlpha"/>
<feOffset dx="2" dy="2"/>
<feGaussianBlur stdDeviation="2"/>
<feComposite in2="hardAlpha" operator="out"/>
<feColorMatrix type="matrix" values="0 0 0 0 0 0 0 0 0 0 0 0 0 0 0 0 0 0 0.25 0"/>
<feBlend mode="normal" in2="BackgroundImageFix" result="effect1_dropShadow_2201_12"/>
<feBlend mode="normal" in="SourceGraphic" in2="effect1_dropShadow_2201_12" result="shape"/>
</filter>
</defs>
</svg>
