<svg width="93" height="80" viewBox="0 0 93 80" fill="none" xmlns="http://www.w3.org/2000/svg">
<path fill-rule="evenodd" clip-rule="evenodd" d="M93 36C93 50.3594 81.3594 62 67 62C65.0814 62 63.2114 61.7922 61.4112 61.3979C61.796 59.8284 62 58.188 62 56.5C62 45.1782 52.8218 36 41.5 36C41.3329 36 41.1662 36.002 41 36.006V36C41 21.6406 52.6406 10 67 10C81.3594 10 93 21.6406 93 36ZM21.9258 50.3906C24.4782 42.2041 32.0247 36.2208 41 36.006C41.0028 48.4442 49.7397 58.8413 61.4112 61.3979C59.2155 70.3547 51.1338 77 41.5 77C36.6795 77 32.2477 75.3362 28.7473 72.5516C30.1767 70.2049 31 67.4486 31 64.5C31 58.2318 27.2792 52.8326 21.9258 50.3906ZM21.9258 50.3906C21.3242 52.3202 21 54.3722 21 56.5C21 63.0014 24.0264 68.7959 28.7473 72.5516C26.0271 77.0177 21.1118 80 15.5 80C6.93959 80 0 73.0604 0 64.5C0 55.9396 6.93959 49 15.5 49C17.7922 49 19.9682 49.4976 21.9258 50.3906Z" fill="#1D687C"/>
<path d="M33 49.5C33 40.9396 26.0604 34 17.5 34C8.93959 34 2 40.9396 2 49.5C2 58.0604 8.93959 65 17.5 65" stroke="#1D687C" stroke-width="3"/>
<path d="M62 22.5C62 11.1782 52.8218 2 41.5 2C30.1782 2 21 11.1782 21 22.5C21 33.8218 30.1782 43 41.5 43" stroke="#1D687C" stroke-width="3"/>
</svg>
