<svg width="98" height="70" viewBox="0 0 98 70" fill="none" xmlns="http://www.w3.org/2000/svg">
<circle cx="24" cy="6" r="6" fill="#83CEE2"/>
<circle cx="44" cy="42" r="6" fill="#83CEE2"/>
<circle cx="54" cy="60" r="6" fill="#83CEE2"/>
<circle cx="34" cy="23" r="6" fill="#83CEE2"/>
<circle cx="62" cy="10" r="6" fill="#83CEE2"/>
<circle cx="72" cy="27" r="6" fill="#83CEE2"/>
<circle cx="82" cy="45" r="6" fill="#83CEE2"/>
<circle cx="44" cy="10" r="6" fill="#83CEE2"/>
<circle cx="64" cy="46" r="6" fill="#83CEE2"/>
<circle cx="74" cy="64" r="6" fill="#83CEE2"/>
<circle cx="54" cy="27" r="6" fill="#83CEE2"/>
<circle cx="92" cy="31" r="6" fill="#83CEE2"/>
<circle cx="16" cy="25" r="6" fill="#83CEE2"/>
<circle cx="36" cy="61" r="6" fill="#83CEE2"/>
<circle cx="26" cy="42" r="6" fill="#83CEE2"/>
<circle cx="6" cy="38" r="6" fill="#83CEE2"/>
<circle cx="15" cy="57" r="6" fill="#83CEE2"/>
<path d="M15.6135 22.0169L21.6652 7.14432L25.3702 8.65192L19.3185 23.5245L15.6135 22.0169Z" fill="#83CEE2"/>
<path d="M35.6135 58.0169L41.6652 43.1443L45.3702 44.6519L39.3185 59.5245L35.6135 58.0169Z" fill="#83CEE2"/>
<path d="M54 24.8725L60.0518 10L63.7568 11.5076L57.705 26.3801L54 24.8725Z" fill="#83CEE2"/>
<path d="M54 24.8725L60.0518 10L63.7568 11.5076L57.705 26.3801L54 24.8725Z" fill="#83CEE2"/>
<path d="M63 43.8725L69.0518 29L72.7568 30.5076L66.705 45.3801L63 43.8725Z" fill="#83CEE2"/>
<path d="M73 61.8725L79.0518 47L82.7568 48.5076L76.705 63.3801L73 61.8725Z" fill="#83CEE2"/>
<path d="M25.6135 39.0169L31.6652 24.1443L35.3702 25.6519L29.3185 40.5245L25.6135 39.0169Z" fill="#83CEE2"/>
<path d="M25.8316 3.99999L41.5374 7.33836L40.7058 11.251L25 7.91258L25.8316 3.99999Z" fill="#83CEE2"/>
<path d="M45.8316 40L61.5374 43.3384L60.7058 47.251L45 43.9126L45.8316 40Z" fill="#83CEE2"/>
<path d="M55.8316 58L71.5374 61.3384L70.7058 65.251L55 61.9126L55.8316 58Z" fill="#83CEE2"/>
<path d="M8.83165 37L24.5374 40.3384L23.7058 44.251L8 40.9126L8.83165 37Z" fill="#83CEE2"/>
<path d="M18.8316 56L34.5374 59.3384L33.7058 63.251L18 59.9126L18.8316 56Z" fill="#83CEE2"/>
<path d="M35.8316 21L51.5374 24.3384L50.7058 28.251L35 24.9126L35.8316 21Z" fill="#83CEE2"/>
<path d="M73.8316 25L89.5374 28.3384L88.7058 32.251L73 28.9126L73.8316 25Z" fill="#83CEE2"/>
</svg>
